<svg xmlns="http://www.w3.org/2000/svg" xmlns:xlink="http://www.w3.org/1999/xlink" width="768" zoomAndPan="magnify" viewBox="0 0 576 398.999991" height="532" preserveAspectRatio="xMidYMid meet" version="1.2"><defs><clipPath id="eb9fd715b7"><path d="M 52 37.390625 L 522 37.390625 L 522 361.390625 L 52 361.390625 Z M 52 37.390625 "/></clipPath><clipPath id="85a9cadefa"><path d="M 7 148 L 568.484375 148 L 568.484375 252 L 7 252 Z M 7 148 "/></clipPath></defs><g id="db718accdc"><g clip-rule="nonzero" clip-path="url(#eb9fd715b7)"><path style=" stroke:none;fill-rule:nonzero;fill:#f9f9fa;fill-opacity:1;" d="M 258.867188 157.339844 C 268.953125 150.578125 279.117188 143.941406 289.359375 137.433594 C 299.597656 130.921875 309.914062 124.523438 320.308594 118.246094 C 341.097656 105.707031 362.199219 93.667969 383.695312 82.371094 C 394.453125 76.734375 405.296875 71.261719 416.28125 66.078125 C 427.265625 60.894531 438.382812 55.976562 449.695312 51.519531 C 455.351562 49.292969 461.054688 47.1875 466.828125 45.257812 C 472.601562 43.324219 478.441406 41.582031 484.371094 40.167969 C 487.339844 39.460938 490.335938 38.839844 493.359375 38.359375 C 496.394531 37.855469 499.453125 37.546875 502.527344 37.429688 C 504.082031 37.375 505.636719 37.40625 507.1875 37.519531 C 508.761719 37.628906 510.3125 37.871094 511.847656 38.242188 C 513.425781 38.617188 514.921875 39.203125 516.332031 40.007812 C 517.066406 40.417969 517.742188 40.90625 518.363281 41.476562 C 518.980469 42.042969 519.527344 42.675781 519.996094 43.371094 C 520.464844 44.070312 520.851562 44.808594 521.148438 45.597656 C 521.445312 46.382812 521.644531 47.191406 521.753906 48.023438 C 521.871094 48.835938 521.921875 49.648438 521.914062 50.46875 C 521.898438 51.273438 521.835938 52.070312 521.722656 52.867188 C 521.496094 54.433594 521.140625 55.972656 520.65625 57.480469 C 520.1875 58.964844 519.640625 60.421875 519.011719 61.847656 C 517.757812 64.671875 516.332031 67.402344 514.730469 70.042969 C 513.15625 72.683594 511.464844 75.253906 509.699219 77.742188 C 506.171875 82.742188 502.371094 87.527344 498.433594 92.183594 C 494.492188 96.839844 490.410156 101.367188 486.222656 105.792969 C 477.855469 114.640625 469.128906 123.140625 460.210938 131.414062 C 451.289062 139.683594 442.160156 147.734375 432.882812 155.59375 C 414.328125 171.316406 395.199219 186.351562 375.707031 200.878906 C 365.953125 208.132812 356.105469 215.261719 346.171875 222.257812 C 336.238281 229.257812 326.21875 236.140625 316.113281 242.902344 C 295.902344 256.410156 275.367188 269.421875 254.511719 281.9375 C 244.082031 288.183594 233.5625 294.273438 222.953125 300.214844 C 212.339844 306.152344 201.632812 311.910156 190.828125 317.484375 C 180.019531 323.058594 169.09375 328.398438 158.046875 333.507812 C 146.996094 338.59375 135.8125 343.410156 124.433594 347.761719 C 118.746094 349.941406 113.003906 351.984375 107.195312 353.851562 C 101.386719 355.71875 95.511719 357.398438 89.542969 358.75 C 86.554688 359.421875 83.546875 360.011719 80.496094 360.457031 C 77.441406 360.925781 74.371094 361.203125 71.28125 361.28125 C 69.726562 361.316406 68.171875 361.265625 66.621094 361.136719 C 65.046875 361.007812 63.496094 360.75 61.960938 360.359375 C 61.183594 360.160156 60.417969 359.910156 59.671875 359.617188 C 58.910156 359.3125 58.179688 358.953125 57.476562 358.535156 C 56.75 358.117188 56.078125 357.621094 55.460938 357.046875 C 54.847656 356.472656 54.308594 355.832031 53.847656 355.132812 C 53.382812 354.429688 53.003906 353.6875 52.714844 352.894531 C 52.425781 352.105469 52.230469 351.292969 52.132812 350.457031 C 51.929688 348.847656 51.957031 347.238281 52.214844 345.632812 C 52.457031 344.078125 52.828125 342.550781 53.328125 341.054688 C 53.8125 339.582031 54.378906 338.136719 55.019531 336.722656 C 56.300781 333.925781 57.753906 331.21875 59.378906 328.605469 C 60.976562 325.992188 62.695312 323.460938 64.480469 320.984375 C 68.046875 316.050781 71.90625 311.308594 75.886719 306.710938 C 79.871094 302.109375 84.003906 297.644531 88.222656 293.277344 C 96.660156 284.527344 105.449219 276.128906 114.4375 267.957031 C 123.425781 259.785156 132.625 251.851562 141.941406 244.0625 C 160.578125 228.507812 179.769531 213.605469 199.300781 199.175781 C 209.0625 191.960938 218.914062 184.867188 228.859375 177.902344 C 238.800781 170.9375 248.804688 164.082031 258.867188 157.339844 Z M 258.867188 157.339844 C 248.78125 164.101562 238.773438 170.972656 228.84375 177.953125 C 218.917969 184.933594 209.085938 192.054688 199.359375 199.316406 C 179.898438 213.820312 160.796875 228.828125 142.28125 244.523438 C 133.019531 252.367188 123.933594 260.40625 115.023438 268.644531 C 106.128906 276.890625 97.433594 285.363281 89.109375 294.167969 C 84.941406 298.578125 80.894531 303.085938 76.96875 307.695312 C 73.058594 312.316406 69.292969 317.058594 65.8125 321.992188 C 64.078125 324.460938 62.414062 326.976562 60.878906 329.558594 C 59.324219 332.121094 57.941406 334.769531 56.722656 337.507812 C 56.121094 338.867188 55.597656 340.253906 55.152344 341.667969 C 54.703125 343.0625 54.375 344.484375 54.164062 345.9375 C 54.066406 346.648438 54.007812 347.363281 53.996094 348.078125 C 53.988281 348.785156 54.035156 349.484375 54.132812 350.183594 C 54.304688 351.558594 54.78125 352.824219 55.5625 353.972656 C 56.339844 355.121094 57.335938 356.03125 58.550781 356.703125 C 59.160156 357.054688 59.792969 357.351562 60.445312 357.605469 C 61.113281 357.859375 61.796875 358.070312 62.488281 358.242188 C 63.90625 358.582031 65.34375 358.800781 66.796875 358.902344 C 68.273438 359.007812 69.746094 359.039062 71.226562 358.984375 C 74.210938 358.871094 77.179688 358.570312 80.128906 358.082031 C 83.089844 357.609375 86.03125 356.984375 88.960938 356.300781 C 94.816406 354.90625 100.601562 353.171875 106.332031 351.261719 C 112.058594 349.351562 117.730469 347.25 123.359375 345.035156 C 134.613281 340.601562 145.691406 335.699219 156.644531 330.53125 C 167.59375 325.359375 178.414062 319.902344 189.148438 314.277344 C 210.601562 303.003906 231.664062 290.980469 252.425781 278.46875 C 273.183594 265.957031 293.632812 252.90625 313.78125 239.425781 C 323.863281 232.6875 333.863281 225.835938 343.78125 218.867188 C 353.703125 211.894531 363.542969 204.816406 373.300781 197.621094 C 392.796875 183.21875 411.949219 168.339844 430.5625 152.816406 C 439.855469 145.042969 449.035156 137.132812 457.996094 128.980469 C 466.953125 120.828125 475.714844 112.464844 484.109375 103.761719 C 488.304688 99.40625 492.410156 94.964844 496.367188 90.402344 C 500.324219 85.839844 504.132812 81.152344 507.660156 76.273438 C 509.417969 73.832031 511.109375 71.339844 512.675781 68.785156 C 514.253906 66.246094 515.664062 63.621094 516.910156 60.902344 C 517.519531 59.558594 518.058594 58.183594 518.519531 56.777344 C 518.984375 55.394531 519.328125 53.980469 519.554688 52.539062 C 519.664062 51.832031 519.726562 51.121094 519.75 50.40625 C 519.765625 49.707031 519.730469 49.007812 519.640625 48.308594 C 519.484375 46.929688 519.023438 45.660156 518.257812 44.5 C 517.492188 43.339844 516.503906 42.417969 515.296875 41.730469 C 514.6875 41.371094 514.054688 41.0625 513.402344 40.800781 C 512.730469 40.535156 512.050781 40.316406 511.351562 40.136719 C 509.933594 39.777344 508.492188 39.535156 507.03125 39.417969 C 505.550781 39.292969 504.070312 39.246094 502.585938 39.28125 C 499.585938 39.359375 496.601562 39.628906 493.636719 40.085938 C 490.664062 40.519531 487.699219 41.101562 484.757812 41.765625 C 478.867188 43.097656 473.046875 44.78125 467.285156 46.613281 C 461.523438 48.445312 455.808594 50.5 450.152344 52.664062 C 438.832031 57 427.675781 61.800781 416.667969 66.871094 C 405.660156 71.941406 394.738281 77.285156 383.964844 82.855469 C 362.390625 93.976562 341.226562 105.894531 320.390625 118.351562 C 309.972656 124.589844 299.640625 130.957031 289.386719 137.453125 C 279.136719 143.953125 268.960938 150.582031 258.867188 157.339844 Z M 258.867188 157.339844 "/></g><g clip-rule="nonzero" clip-path="url(#85a9cadefa)"><path style=" stroke:none;fill-rule:nonzero;fill:#f9f9fa;fill-opacity:1;" d="M 287.621094 148.535156 C 299.761719 148.535156 311.902344 148.671875 324.039062 148.941406 C 336.175781 149.210938 348.308594 149.628906 360.433594 150.195312 C 384.6875 151.332031 408.917969 153.054688 433.074219 155.617188 C 445.136719 156.914062 457.195312 158.390625 469.214844 160.1875 C 481.238281 161.988281 493.203125 164.078125 505.085938 166.664062 C 511.023438 167.960938 516.9375 169.378906 522.808594 170.984375 C 528.679688 172.585938 534.503906 174.386719 540.226562 176.507812 C 543.085938 177.574219 545.917969 178.722656 548.699219 180.003906 C 551.503906 181.273438 554.214844 182.714844 556.835938 184.332031 C 558.15625 185.148438 559.429688 186.035156 560.652344 186.992188 C 561.898438 187.957031 563.054688 189.019531 564.121094 190.175781 C 565.226562 191.367188 566.140625 192.6875 566.863281 194.136719 C 567.246094 194.886719 567.535156 195.667969 567.734375 196.484375 C 567.929688 197.300781 568.03125 198.128906 568.035156 198.96875 C 568.039062 199.8125 567.945312 200.640625 567.757812 201.457031 C 567.566406 202.277344 567.285156 203.0625 566.910156 203.8125 C 566.558594 204.550781 566.148438 205.257812 565.683594 205.933594 C 565.226562 206.59375 564.730469 207.222656 564.195312 207.824219 C 563.136719 209 561.984375 210.082031 560.746094 211.0625 C 559.527344 212.039062 558.261719 212.945312 556.945312 213.78125 C 554.335938 215.429688 551.628906 216.90625 548.832031 218.214844 C 546.054688 219.53125 543.226562 220.714844 540.375 221.816406 C 534.660156 224.007812 528.839844 225.875 522.976562 227.554688 C 517.113281 229.234375 511.191406 230.726562 505.265625 232.078125 C 493.386719 234.78125 481.417969 236.996094 469.398438 238.910156 C 457.378906 240.828125 445.320312 242.445312 433.238281 243.816406 C 409.070312 246.574219 384.816406 248.4375 360.535156 249.671875 C 348.390625 250.28125 336.246094 250.738281 324.089844 251.042969 C 311.9375 251.351562 299.785156 251.5 287.632812 251.492188 C 263.328125 251.480469 239.023438 250.878906 214.71875 249.6875 C 202.578125 249.082031 190.445312 248.296875 178.324219 247.332031 C 166.199219 246.367188 154.097656 245.203125 142.011719 243.835938 C 129.929688 242.464844 117.875 240.828125 105.851562 238.933594 C 93.839844 237.015625 81.863281 234.800781 69.984375 232.097656 C 64.046875 230.746094 58.136719 229.253906 52.269531 227.578125 C 46.402344 225.898438 40.59375 224.03125 34.890625 221.839844 C 32.035156 220.742188 29.207031 219.554688 26.433594 218.238281 C 23.632812 216.929688 20.925781 215.453125 18.316406 213.800781 C 17 212.964844 15.730469 212.058594 14.515625 211.085938 C 13.265625 210.097656 12.109375 209.015625 11.042969 207.832031 C 10.507812 207.230469 10.011719 206.601562 9.550781 205.941406 C 9.089844 205.265625 8.679688 204.5625 8.328125 203.820312 C 7.953125 203.070312 7.667969 202.28125 7.480469 201.464844 C 7.289062 200.644531 7.195312 199.8125 7.199219 198.972656 C 7.203125 198.132812 7.304688 197.304688 7.503906 196.484375 C 7.703125 195.667969 7.992188 194.882812 8.375 194.136719 C 9.097656 192.683594 10.011719 191.363281 11.113281 190.171875 C 12.1875 189.011719 13.351562 187.949219 14.605469 186.984375 C 15.832031 186.027344 17.101562 185.140625 18.421875 184.320312 C 21.042969 182.707031 23.757812 181.265625 26.5625 179.996094 C 29.34375 178.714844 32.175781 177.566406 35.035156 176.5 C 40.761719 174.378906 46.585938 172.585938 52.453125 170.976562 C 58.324219 169.367188 64.242188 167.960938 70.179688 166.65625 C 82.058594 164.074219 94.027344 161.980469 106.046875 160.183594 C 118.066406 158.386719 130.113281 156.90625 142.191406 155.609375 C 166.34375 153.046875 190.570312 151.328125 214.828125 150.191406 C 226.957031 149.621094 239.089844 149.207031 251.226562 148.941406 C 263.363281 148.679688 275.496094 148.542969 287.621094 148.535156 Z M 287.621094 148.535156 C 275.484375 148.535156 263.34375 148.683594 251.210938 148.984375 C 239.074219 149.28125 226.945312 149.738281 214.820312 150.355469 C 190.574219 151.585938 166.359375 153.445312 142.242188 156.199219 C 130.179688 157.570312 118.160156 159.199219 106.175781 161.09375 C 94.195312 163.011719 82.261719 165.207031 70.445312 167.902344 C 64.535156 169.246094 58.664062 170.746094 52.835938 172.398438 C 47.019531 174.066406 41.253906 175.914062 35.617188 178.082031 C 32.800781 179.175781 30.019531 180.332031 27.304688 181.621094 C 24.585938 182.890625 21.960938 184.324219 19.421875 185.929688 C 18.171875 186.726562 16.964844 187.589844 15.804688 188.515625 C 14.65625 189.425781 13.59375 190.425781 12.613281 191.515625 C 12.132812 192.050781 11.6875 192.613281 11.277344 193.203125 C 10.878906 193.785156 10.527344 194.394531 10.222656 195.027344 C 9.601562 196.269531 9.292969 197.585938 9.300781 198.972656 C 9.308594 200.363281 9.632812 201.671875 10.269531 202.90625 C 10.582031 203.535156 10.9375 204.136719 11.34375 204.710938 C 11.757812 205.292969 12.207031 205.847656 12.6875 206.375 C 13.675781 207.445312 14.746094 208.429688 15.902344 209.320312 C 17.066406 210.230469 18.277344 211.074219 19.53125 211.855469 C 22.078125 213.417969 24.710938 214.816406 27.433594 216.050781 C 30.15625 217.304688 32.945312 218.433594 35.765625 219.480469 C 41.410156 221.578125 47.183594 223.351562 53.007812 224.949219 C 58.832031 226.546875 64.714844 227.964844 70.621094 229.242188 C 82.441406 231.816406 94.375 233.902344 106.351562 235.691406 C 118.328125 237.476562 130.359375 238.960938 142.40625 240.25 C 166.507812 242.808594 190.695312 244.527344 214.910156 245.664062 C 239.125 246.804688 263.375 247.328125 287.621094 247.308594 C 299.742188 247.308594 311.867188 247.175781 323.988281 246.90625 C 336.109375 246.632812 348.222656 246.21875 360.332031 245.65625 C 384.546875 244.523438 408.738281 242.804688 432.835938 240.25 C 444.898438 238.957031 456.910156 237.484375 468.890625 235.691406 C 480.871094 233.894531 492.800781 231.8125 504.625 229.242188 C 510.535156 227.949219 516.410156 226.542969 522.242188 224.949219 C 528.070312 223.351562 533.839844 221.574219 539.484375 219.480469 C 542.304688 218.429688 545.089844 217.300781 547.8125 216.046875 C 550.535156 214.816406 553.171875 213.414062 555.714844 211.847656 C 556.972656 211.070312 558.183594 210.226562 559.351562 209.316406 C 560.503906 208.421875 561.578125 207.441406 562.566406 206.367188 C 563.046875 205.839844 563.496094 205.285156 563.910156 204.703125 C 564.316406 204.132812 564.675781 203.53125 564.984375 202.902344 C 565.625 201.667969 565.949219 200.355469 565.957031 198.964844 C 565.964844 197.574219 565.65625 196.257812 565.03125 195.015625 C 564.726562 194.378906 564.375 193.769531 563.976562 193.1875 C 563.566406 192.597656 563.125 192.035156 562.644531 191.5 C 561.664062 190.40625 560.597656 189.40625 559.449219 188.496094 C 558.289062 187.570312 557.082031 186.707031 555.832031 185.910156 C 553.292969 184.308594 550.667969 182.871094 547.945312 181.601562 C 545.230469 180.3125 542.449219 179.136719 539.632812 178.0625 C 533.996094 175.894531 528.230469 174.046875 522.414062 172.378906 C 516.597656 170.710938 510.71875 169.230469 504.808594 167.886719 C 492.988281 165.195312 481.054688 162.988281 469.074219 161.078125 C 457.09375 159.167969 445.066406 157.554688 433.007812 156.183594 C 408.882812 153.441406 384.671875 151.578125 360.429688 150.34375 C 348.304688 149.738281 336.175781 149.28125 324.039062 148.972656 C 311.902344 148.664062 299.761719 148.519531 287.621094 148.535156 Z M 287.621094 148.535156 "/></g><g style="fill:#f9f9fa;fill-opacity:1;"><g transform="translate(76.307318, 258.43614)"><path style="stroke:none" d="M 111.75 -37.96875 L 111.75 -37.734375 C 110 -25.785156 106.816406 -16.269531 102.203125 -9.1875 C 97.585938 -2.101562 91.21875 3.109375 83.09375 6.453125 C 74.976562 9.796875 64.789062 11.863281 52.53125 12.65625 C 46.320312 12.65625 40.390625 12.015625 34.734375 10.734375 C 29.085938 9.460938 24.113281 7.992188 19.8125 6.328125 C 15.519531 4.660156 12.097656 3.1875 9.546875 1.90625 C 7.003906 0.632812 5.734375 0 5.734375 0 L 6.203125 -1.4375 C 2.390625 -2.863281 -0.628906 -4.171875 -2.859375 -5.359375 C -5.085938 -6.554688 -6.203125 -7.15625 -6.203125 -7.15625 L 5.5 -36.0625 C 9.789062 -33.351562 14.679688 -30.921875 20.171875 -28.765625 C 25.671875 -26.617188 30.96875 -25.546875 36.0625 -25.546875 C 41.789062 -25.867188 46.566406 -27.9375 50.390625 -31.75 C 54.210938 -35.570312 56.597656 -41.304688 57.546875 -48.953125 C 58.660156 -61.523438 59.773438 -73.503906 60.890625 -84.890625 C 62.003906 -96.273438 63 -106.425781 63.875 -115.34375 C 64.75 -124.257812 65.460938 -131.265625 66.015625 -136.359375 C 66.578125 -141.453125 66.859375 -144 66.859375 -144 L 69.25 -144 C 76.257812 -144 83.222656 -143.5625 90.140625 -142.6875 C 97.066406 -141.8125 102.835938 -140.894531 107.453125 -139.9375 C 112.078125 -138.976562 114.390625 -138.5 114.390625 -138.5 L 113.421875 -133.71875 C 117.242188 -133.082031 120.347656 -132.523438 122.734375 -132.046875 C 125.128906 -131.578125 126.328125 -131.34375 126.328125 -131.34375 C 125.046875 -124.175781 123.6875 -116.175781 122.25 -107.34375 C 120.820312 -98.507812 119.390625 -89.429688 117.953125 -80.109375 C 116.523438 -70.796875 115.175781 -61.84375 113.90625 -53.25 Z M 97.421875 -45.375 C 98.859375 -55.238281 100.375 -65.546875 101.96875 -76.296875 C 103.5625 -87.046875 105.148438 -97.632812 106.734375 -108.0625 C 108.328125 -118.488281 109.921875 -128 111.515625 -136.59375 C 104.671875 -138.1875 97.664062 -139.421875 90.5 -140.296875 C 83.34375 -141.171875 76.179688 -141.609375 69.015625 -141.609375 C 69.015625 -141.609375 68.773438 -139.21875 68.296875 -134.4375 C 67.816406 -129.664062 67.140625 -123.019531 66.265625 -114.5 C 65.390625 -105.988281 64.394531 -96.117188 63.28125 -84.890625 C 62.164062 -73.671875 61.050781 -61.613281 59.9375 -48.71875 C 59.144531 -39.800781 56.640625 -33.390625 52.421875 -29.484375 C 48.203125 -25.585938 42.828125 -23.476562 36.296875 -23.15625 L 35.34375 -23.15625 C 30.882812 -23.15625 26.425781 -23.953125 21.96875 -25.546875 C 17.507812 -27.140625 13.847656 -28.734375 10.984375 -30.328125 C 8.117188 -31.921875 6.6875 -32.71875 6.6875 -32.71875 L -3.34375 -8.125 C -3.34375 -8.125 -1.671875 -7.207031 1.671875 -5.375 C 5.015625 -3.539062 9.707031 -1.671875 15.75 0.234375 C 21.800781 2.148438 28.726562 3.109375 36.53125 3.109375 C 49.113281 3.109375 59.539062 1.71875 67.8125 -1.0625 C 76.09375 -3.851562 82.617188 -8.75 87.390625 -15.75 C 92.171875 -22.757812 95.515625 -32.632812 97.421875 -45.375 Z M 97.421875 -45.375 "/></g></g><g style="fill:#f9f9fa;fill-opacity:1;"><g transform="translate(175.64784, 258.43614)"><path style="stroke:none" d="M 60.171875 7.640625 C 53.804688 7.640625 47.757812 6.84375 42.03125 5.25 C 36.300781 3.65625 30.890625 0.867188 25.796875 -3.109375 C 16.878906 -6.765625 10.226562 -12.332031 5.84375 -19.8125 C 1.46875 -27.300781 -0.71875 -35.265625 -0.71875 -43.703125 C -0.71875 -51.503906 1.3125 -59.066406 5.375 -66.390625 C 9.4375 -73.710938 15.207031 -79.921875 22.6875 -85.015625 C 30.164062 -90.109375 39.160156 -93.050781 49.671875 -93.84375 C 55.554688 -93.6875 60.847656 -92.734375 65.546875 -90.984375 C 70.242188 -89.234375 74.1875 -86.84375 77.375 -83.8125 C 83.894531 -81.425781 89.023438 -77.765625 92.765625 -72.828125 C 96.515625 -67.898438 98.390625 -62.648438 98.390625 -57.078125 C 98.390625 -51.660156 96.875 -46.484375 93.84375 -41.546875 C 90.820312 -36.609375 86.207031 -32.707031 80 -29.84375 L 80.71875 -26.75 C 83.414062 -27.382812 85.71875 -27.976562 87.625 -28.53125 C 89.539062 -29.09375 90.5 -29.375 90.5 -29.375 C 90.5 -29.375 90.773438 -28.175781 91.328125 -25.78125 C 91.890625 -23.394531 92.488281 -20.53125 93.125 -17.1875 C 93.769531 -13.84375 94.328125 -10.5 94.796875 -7.15625 C 95.273438 -3.820312 95.4375 -1.195312 95.28125 0.71875 C 95.28125 0.71875 93.765625 1.273438 90.734375 2.390625 C 87.710938 3.503906 83.535156 4.65625 78.203125 5.84375 C 72.867188 7.039062 66.859375 7.640625 60.171875 7.640625 Z M 48 -68.0625 C 48.476562 -68.21875 48.953125 -68.296875 49.421875 -68.296875 C 49.898438 -68.296875 50.300781 -68.296875 50.625 -68.296875 C 54.757812 -68.296875 57.265625 -67.179688 58.140625 -64.953125 C 59.015625 -62.722656 58.21875 -60.492188 55.75 -58.265625 C 53.289062 -56.035156 49.195312 -54.921875 43.46875 -54.921875 C 40.4375 -54.921875 37.410156 -55.238281 34.390625 -55.875 C 35.660156 -59.0625 37.488281 -61.769531 39.875 -64 C 42.269531 -66.226562 44.976562 -67.582031 48 -68.0625 Z M 44.421875 -1.90625 L 48.46875 -1.90625 C 55 -1.90625 60.691406 -2.421875 65.546875 -3.453125 C 70.398438 -4.492188 74.179688 -5.488281 76.890625 -6.4375 C 79.597656 -7.394531 80.953125 -7.875 80.953125 -7.875 C 81.109375 -9.46875 80.988281 -11.65625 80.59375 -14.4375 C 80.195312 -17.226562 79.71875 -20.097656 79.15625 -23.046875 C 78.601562 -25.992188 78.085938 -28.460938 77.609375 -30.453125 C 77.128906 -32.441406 76.890625 -33.4375 76.890625 -33.4375 C 76.890625 -33.4375 75.734375 -33.15625 73.421875 -32.59375 C 71.117188 -32.039062 68.210938 -31.441406 64.703125 -30.796875 C 61.203125 -30.160156 57.460938 -29.84375 53.484375 -29.84375 C 50.460938 -29.84375 47.316406 -30.117188 44.046875 -30.671875 C 40.785156 -31.234375 38.203125 -32.789062 36.296875 -35.34375 C 38.046875 -35.1875 39.675781 -35.066406 41.1875 -34.984375 C 42.707031 -34.898438 44.179688 -34.859375 45.609375 -34.859375 C 55.796875 -34.859375 63.914062 -36.769531 69.96875 -40.59375 C 76.019531 -44.414062 80.117188 -49.148438 82.265625 -54.796875 C 84.410156 -60.453125 84.6875 -66.066406 83.09375 -71.640625 C 81.507812 -77.210938 78.085938 -81.90625 72.828125 -85.71875 C 67.578125 -89.539062 60.65625 -91.453125 52.0625 -91.453125 L 49.671875 -91.453125 C 39.640625 -91.140625 31.160156 -88.789062 24.234375 -84.40625 C 17.304688 -80.03125 11.972656 -74.5 8.234375 -67.8125 C 4.492188 -61.125 2.382812 -54.078125 1.90625 -46.671875 C 1.425781 -39.273438 2.660156 -32.234375 5.609375 -25.546875 C 8.554688 -18.859375 13.253906 -13.363281 19.703125 -9.0625 C 26.148438 -4.769531 34.390625 -2.382812 44.421875 -1.90625 Z M 44.421875 -1.90625 "/></g></g><g style="fill:#f9f9fa;fill-opacity:1;"><g transform="translate(259.705225, 258.43614)"><path style="stroke:none" d="M 1.671875 -79.28125 L 40.828125 -89.078125 L 41.546875 -80.234375 C 48.710938 -87.878906 57.46875 -91.703125 67.8125 -91.703125 C 70.519531 -91.703125 73.46875 -91.300781 76.65625 -90.5 C 79.84375 -89.707031 83.265625 -88.4375 86.921875 -86.6875 L 85.734375 -83.8125 C 89.710938 -83.175781 94.085938 -81.742188 98.859375 -79.515625 L 83.34375 -39.15625 C 77.613281 -42.664062 73.234375 -44.421875 70.203125 -44.421875 C 67.492188 -44.421875 65.1875 -43.460938 63.28125 -41.546875 C 61.375 -39.640625 59.539062 -37.09375 57.78125 -33.90625 L 62.328125 3.109375 C 56.597656 5.972656 50.1875 7.878906 43.09375 8.828125 C 36.007812 9.785156 29.921875 10.265625 24.828125 10.265625 C 21.648438 10.265625 18.707031 10.144531 16 9.90625 C 13.289062 9.664062 11.9375 9.546875 11.9375 9.546875 L 11.9375 3.109375 C 8.914062 3.109375 6.171875 2.988281 3.703125 2.75 C 1.234375 2.507812 0 2.390625 0 2.390625 Z M 38.453125 -85.96875 L 4.0625 -77.375 L 2.390625 0.234375 C 2.390625 0.234375 3.382812 0.3125 5.375 0.46875 C 7.363281 0.632812 9.867188 0.71875 12.890625 0.71875 C 17.984375 0.71875 23.832031 0.320312 30.4375 -0.46875 C 37.050781 -1.269531 42.828125 -2.945312 47.765625 -5.5 L 43.46875 -41.546875 C 45.375 -45.367188 47.5625 -48.394531 50.03125 -50.625 C 52.5 -52.851562 55.242188 -53.96875 58.265625 -53.96875 C 61.765625 -53.96875 65.742188 -52.535156 70.203125 -49.671875 L 84.0625 -85.484375 C 78.800781 -88.035156 73.382812 -89.3125 67.8125 -89.3125 C 56.195312 -89.3125 46.804688 -84.296875 39.640625 -74.265625 Z M 38.453125 -85.96875 "/></g></g><g style="fill:#f9f9fa;fill-opacity:1;"><g transform="translate(334.927021, 258.43614)"><path style="stroke:none" d="M 1.671875 -79.28125 L 40.828125 -89.078125 L 41.546875 -80.234375 C 48.710938 -87.878906 57.46875 -91.703125 67.8125 -91.703125 C 70.519531 -91.703125 73.46875 -91.300781 76.65625 -90.5 C 79.84375 -89.707031 83.265625 -88.4375 86.921875 -86.6875 L 85.734375 -83.8125 C 89.710938 -83.175781 94.085938 -81.742188 98.859375 -79.515625 L 83.34375 -39.15625 C 77.613281 -42.664062 73.234375 -44.421875 70.203125 -44.421875 C 67.492188 -44.421875 65.1875 -43.460938 63.28125 -41.546875 C 61.375 -39.640625 59.539062 -37.09375 57.78125 -33.90625 L 62.328125 3.109375 C 56.597656 5.972656 50.1875 7.878906 43.09375 8.828125 C 36.007812 9.785156 29.921875 10.265625 24.828125 10.265625 C 21.648438 10.265625 18.707031 10.144531 16 9.90625 C 13.289062 9.664062 11.9375 9.546875 11.9375 9.546875 L 11.9375 3.109375 C 8.914062 3.109375 6.171875 2.988281 3.703125 2.75 C 1.234375 2.507812 0 2.390625 0 2.390625 Z M 38.453125 -85.96875 L 4.0625 -77.375 L 2.390625 0.234375 C 2.390625 0.234375 3.382812 0.3125 5.375 0.46875 C 7.363281 0.632812 9.867188 0.71875 12.890625 0.71875 C 17.984375 0.71875 23.832031 0.320312 30.4375 -0.46875 C 37.050781 -1.269531 42.828125 -2.945312 47.765625 -5.5 L 43.46875 -41.546875 C 45.375 -45.367188 47.5625 -48.394531 50.03125 -50.625 C 52.5 -52.851562 55.242188 -53.96875 58.265625 -53.96875 C 61.765625 -53.96875 65.742188 -52.535156 70.203125 -49.671875 L 84.0625 -85.484375 C 78.800781 -88.035156 73.382812 -89.3125 67.8125 -89.3125 C 56.195312 -89.3125 46.804688 -84.296875 39.640625 -74.265625 Z M 38.453125 -85.96875 "/></g></g><g style="fill:#f9f9fa;fill-opacity:1;"><g transform="translate(409.910022, 258.43614)"><path style="stroke:none" d="M 12.65625 39.15625 L -0.484375 33.671875 C 7.953125 22.210938 13.882812 12.859375 17.3125 5.609375 C 20.738281 -1.628906 22.769531 -6.207031 23.40625 -8.125 C 18.46875 -15.445312 14.25 -23.40625 10.75 -32 C 7.25 -40.59375 4.382812 -48.789062 2.15625 -56.59375 C -0.0703125 -64.394531 -1.703125 -70.757812 -2.734375 -75.6875 C -3.773438 -80.625 -4.296875 -83.09375 -4.296875 -83.09375 L 37.96875 -85.96875 C 37.96875 -84.695312 37.96875 -83.34375 37.96875 -81.90625 C 37.96875 -80.476562 38.046875 -79.125 38.203125 -77.84375 L 49.90625 -78.796875 C 49.90625 -75.929688 50.023438 -73.023438 50.265625 -70.078125 C 50.503906 -67.140625 50.785156 -64.316406 51.109375 -61.609375 C 52.535156 -68.296875 53.566406 -74.304688 54.203125 -79.640625 C 54.835938 -84.972656 55.15625 -87.640625 55.15625 -87.640625 L 94.09375 -84.765625 C 93.769531 -83.648438 93.488281 -82.578125 93.25 -81.546875 C 93.007812 -80.515625 92.734375 -79.519531 92.421875 -78.5625 L 106.03125 -77.609375 C 102.363281 -63.753906 98.859375 -51.570312 95.515625 -41.0625 C 92.171875 -30.5625 88.75 -21.171875 85.25 -12.890625 C 81.75 -4.617188 78.046875 3.097656 74.140625 10.265625 C 70.242188 17.429688 65.988281 24.59375 61.375 31.75 C 56.757812 38.914062 51.582031 46.71875 45.84375 55.15625 L 11.46875 40.828125 C 11.625 40.359375 12.019531 39.800781 12.65625 39.15625 Z M 26.265625 -8.59375 C 26.265625 -8.59375 24.75 -4.773438 21.71875 2.859375 C 18.695312 10.503906 12.570312 20.457031 3.34375 32.71875 L 32.953125 45.125 C 38.367188 37.007812 43.34375 29.488281 47.875 22.5625 C 52.414062 15.632812 56.554688 8.707031 60.296875 1.78125 C 64.035156 -5.132812 67.578125 -12.570312 70.921875 -20.53125 C 74.265625 -28.488281 77.566406 -37.519531 80.828125 -47.625 C 84.097656 -57.738281 87.484375 -69.40625 90.984375 -82.625 L 57.3125 -85.015625 C 57.3125 -85.015625 57.070312 -83.222656 56.59375 -79.640625 C 56.113281 -76.054688 55.359375 -71.632812 54.328125 -66.375 C 53.296875 -61.125 52.019531 -55.753906 50.5 -50.265625 C 48.988281 -44.773438 47.195312 -40.117188 45.125 -36.296875 C 45.125 -36.296875 44.328125 -38.40625 42.734375 -42.625 C 41.148438 -46.84375 39.5625 -52.53125 37.96875 -59.6875 C 36.375 -66.851562 35.578125 -74.738281 35.578125 -83.34375 L -1.4375 -80.953125 C -1.4375 -80.953125 -0.921875 -78.5625 0.109375 -73.78125 C 1.148438 -69.007812 2.785156 -62.878906 5.015625 -55.390625 C 7.242188 -47.910156 10.109375 -39.992188 13.609375 -31.640625 C 17.109375 -23.285156 21.328125 -15.601562 26.265625 -8.59375 Z M 26.265625 -8.59375 "/></g></g></g></svg>