<svg xmlns="http://www.w3.org/2000/svg" xmlns:xlink="http://www.w3.org/1999/xlink" width="610" zoomAndPan="magnify" viewBox="0 0 457.5 317.249999" height="423" preserveAspectRatio="xMidYMid meet" version="1.2"><defs><clipPath id="302b784c7f"><path d="M 8.714844 16.570312 L 448 16.570312 L 448 299.402344 L 8.714844 299.402344 Z M 8.714844 16.570312 "/></clipPath><clipPath id="92b3abae1b"><path d="M 83.535156 16.570312 L 372.898438 16.570312 C 414.222656 16.570312 447.722656 50.070312 447.722656 91.394531 L 447.722656 224.582031 C 447.722656 265.902344 414.222656 299.402344 372.898438 299.402344 L 83.535156 299.402344 C 42.210938 299.402344 8.714844 265.902344 8.714844 224.582031 L 8.714844 91.394531 C 8.714844 50.070312 42.210938 16.570312 83.535156 16.570312 Z M 83.535156 16.570312 "/></clipPath><clipPath id="ad3c61d1e3"><path d="M 41 29.625 L 414 29.625 L 414 286.347656 L 41 286.347656 Z M 41 29.625 "/></clipPath><clipPath id="041c648b95"><path d="M 5.625 117 L 450.730469 117 L 450.730469 200 L 5.625 200 Z M 5.625 117 "/></clipPath></defs><g id="643587740b"><g clip-rule="nonzero" clip-path="url(#302b784c7f)"><g clip-rule="nonzero" clip-path="url(#92b3abae1b)"><path style=" stroke:none;fill-rule:nonzero;fill:#f9f9fa;fill-opacity:1;" d="M 8.714844 16.570312 L 447.324219 16.570312 L 447.324219 299.402344 L 8.714844 299.402344 Z M 8.714844 16.570312 "/></g></g><g clip-rule="nonzero" clip-path="url(#ad3c61d1e3)"><path style=" stroke:none;fill-rule:nonzero;fill:#775858;fill-opacity:1;" d="M 205.402344 124.667969 C 213.394531 119.3125 221.449219 114.054688 229.5625 108.894531 C 237.679688 103.734375 245.851562 98.667969 254.085938 93.691406 C 270.5625 83.757812 287.277344 74.21875 304.3125 65.265625 C 312.835938 60.800781 321.429688 56.464844 330.132812 52.355469 C 338.835938 48.25 347.644531 44.355469 356.609375 40.820312 C 361.089844 39.058594 365.609375 37.390625 370.183594 35.859375 C 374.757812 34.328125 379.386719 32.949219 384.085938 31.824219 C 386.4375 31.269531 388.808594 30.773438 391.207031 30.394531 C 393.613281 29.996094 396.03125 29.75 398.46875 29.660156 C 399.703125 29.617188 400.933594 29.640625 402.160156 29.730469 C 403.410156 29.816406 404.640625 30.007812 405.855469 30.300781 C 407.105469 30.597656 408.292969 31.0625 409.410156 31.699219 C 410.589844 32.359375 411.554688 33.246094 412.3125 34.367188 C 413.066406 35.484375 413.53125 36.714844 413.703125 38.054688 C 413.796875 38.695312 413.839844 39.339844 413.828125 39.988281 C 413.816406 40.625 413.769531 41.257812 413.679688 41.890625 C 413.5 43.132812 413.21875 44.351562 412.835938 45.542969 C 412.464844 46.722656 412.027344 47.875 411.53125 49.007812 C 410.539062 51.242188 409.40625 53.40625 408.140625 55.5 C 406.890625 57.589844 405.550781 59.625 404.152344 61.597656 C 401.359375 65.5625 398.347656 69.351562 395.226562 73.042969 C 392.105469 76.734375 388.867188 80.320312 385.550781 83.824219 C 378.921875 90.835938 372.007812 97.570312 364.9375 104.125 C 357.871094 110.679688 350.640625 117.058594 343.289062 123.285156 C 328.585938 135.746094 313.429688 147.65625 297.984375 159.167969 C 290.253906 164.914062 282.453125 170.5625 274.582031 176.109375 C 266.710938 181.652344 258.773438 187.105469 250.765625 192.464844 C 234.75 203.167969 218.480469 213.476562 201.953125 223.394531 C 193.691406 228.34375 185.355469 233.171875 176.945312 237.875 C 168.539062 242.582031 160.054688 247.144531 151.492188 251.558594 C 142.929688 255.976562 134.273438 260.210938 125.519531 264.257812 C 116.761719 268.289062 107.902344 272.101562 98.886719 275.550781 C 94.378906 277.277344 89.828125 278.898438 85.226562 280.375 C 80.625 281.855469 75.96875 283.1875 71.238281 284.257812 C 68.875 284.789062 66.488281 285.257812 64.070312 285.609375 C 61.652344 285.980469 59.21875 286.199219 56.769531 286.261719 C 55.539062 286.289062 54.308594 286.253906 53.078125 286.148438 C 51.832031 286.046875 50.601562 285.839844 49.386719 285.53125 C 48.769531 285.375 48.164062 285.175781 47.570312 284.945312 C 46.96875 284.703125 46.390625 284.417969 45.832031 284.089844 C 44.660156 283.417969 43.699219 282.519531 42.957031 281.390625 C 42.210938 280.265625 41.757812 279.03125 41.597656 277.6875 C 41.4375 276.410156 41.457031 275.136719 41.664062 273.863281 C 41.855469 272.632812 42.148438 271.421875 42.542969 270.238281 C 42.929688 269.070312 43.375 267.925781 43.886719 266.804688 C 44.898438 264.585938 46.050781 262.441406 47.339844 260.371094 C 48.605469 258.300781 49.964844 256.296875 51.382812 254.335938 C 54.207031 250.425781 57.265625 246.667969 60.421875 243.023438 C 63.574219 239.378906 66.851562 235.839844 70.195312 232.378906 C 76.878906 225.445312 83.84375 218.789062 90.964844 212.316406 C 98.089844 205.84375 105.378906 199.554688 112.757812 193.382812 C 127.527344 181.058594 142.730469 169.25 158.207031 157.816406 C 165.941406 152.101562 173.75 146.480469 181.628906 140.960938 C 189.503906 135.441406 197.429688 130.011719 205.402344 124.667969 Z M 205.402344 124.667969 C 197.414062 130.027344 189.484375 135.472656 181.617188 141.003906 C 173.75 146.535156 165.960938 152.175781 158.253906 157.929688 C 142.832031 169.421875 127.699219 181.3125 113.027344 193.75 C 105.6875 199.964844 98.488281 206.335938 91.429688 212.863281 C 84.378906 219.398438 77.492188 226.109375 70.894531 233.085938 C 67.59375 236.582031 64.390625 240.152344 61.277344 243.804688 C 58.179688 247.464844 55.195312 251.222656 52.4375 255.132812 C 51.0625 257.085938 49.742188 259.082031 48.527344 261.125 C 47.296875 263.15625 46.199219 265.257812 45.234375 267.425781 C 44.757812 268.5 44.34375 269.601562 43.988281 270.722656 C 43.632812 271.828125 43.375 272.953125 43.207031 274.105469 C 43.128906 274.667969 43.085938 275.234375 43.074219 275.800781 C 43.066406 276.359375 43.105469 276.914062 43.183594 277.46875 C 43.320312 278.558594 43.695312 279.5625 44.3125 280.472656 C 44.929688 281.382812 45.722656 282.105469 46.683594 282.636719 C 47.167969 282.914062 47.667969 283.152344 48.183594 283.351562 C 48.714844 283.550781 49.253906 283.71875 49.804688 283.855469 C 50.925781 284.125 52.066406 284.296875 53.21875 284.378906 C 54.386719 284.460938 55.554688 284.484375 56.726562 284.445312 C 59.09375 284.355469 61.445312 284.117188 63.78125 283.726562 C 66.125 283.355469 68.457031 282.859375 70.777344 282.316406 C 75.417969 281.210938 80.003906 279.835938 84.542969 278.324219 C 89.082031 276.808594 93.574219 275.144531 98.035156 273.390625 C 106.953125 269.878906 115.730469 265.992188 124.40625 261.898438 C 133.085938 257.800781 141.65625 253.476562 150.164062 249.019531 C 167.160156 240.085938 183.851562 230.558594 200.300781 220.644531 C 216.746094 210.734375 232.949219 200.390625 248.917969 189.707031 C 256.902344 184.371094 264.828125 178.941406 272.6875 173.417969 C 280.550781 167.898438 288.34375 162.285156 296.074219 156.585938 C 311.523438 145.171875 326.699219 133.382812 341.449219 121.085938 C 348.8125 114.925781 356.085938 108.660156 363.183594 102.199219 C 370.28125 95.738281 377.222656 89.109375 383.875 82.21875 C 387.199219 78.765625 390.453125 75.246094 393.589844 71.632812 C 396.726562 68.015625 399.742188 64.300781 402.535156 60.433594 C 403.929688 58.5 405.269531 56.523438 406.511719 54.503906 C 407.761719 52.492188 408.878906 50.410156 409.867188 48.257812 C 410.351562 47.191406 410.777344 46.101562 411.144531 44.988281 C 411.507812 43.890625 411.78125 42.773438 411.960938 41.628906 C 412.046875 41.070312 412.097656 40.507812 412.117188 39.941406 C 412.128906 39.382812 412.101562 38.832031 412.027344 38.277344 C 411.90625 37.183594 411.539062 36.179688 410.933594 35.257812 C 410.328125 34.339844 409.542969 33.609375 408.585938 33.066406 C 408.105469 32.78125 407.605469 32.535156 407.085938 32.328125 C 406.554688 32.121094 406.015625 31.945312 405.464844 31.800781 C 404.335938 31.515625 403.195312 31.328125 402.039062 31.234375 C 400.867188 31.132812 399.691406 31.097656 398.515625 31.125 C 396.140625 31.1875 393.777344 31.398438 391.425781 31.761719 C 389.070312 32.105469 386.722656 32.566406 384.390625 33.09375 C 379.722656 34.148438 375.109375 35.480469 370.546875 36.933594 C 365.980469 38.386719 361.453125 40.015625 356.96875 41.730469 C 348 45.164062 339.160156 48.96875 330.4375 52.984375 C 321.714844 57.003906 313.0625 61.238281 304.527344 65.652344 C 287.429688 74.464844 270.664062 83.90625 254.152344 93.777344 C 245.898438 98.71875 237.710938 103.761719 229.589844 108.914062 C 221.464844 114.0625 213.402344 119.3125 205.402344 124.667969 Z M 205.402344 124.667969 "/></g><g clip-rule="nonzero" clip-path="url(#041c648b95)"><path style=" stroke:none;fill-rule:nonzero;fill:#775858;fill-opacity:1;" d="M 228.1875 117.695312 C 237.808594 117.695312 247.425781 117.800781 257.042969 118.015625 C 266.660156 118.230469 276.273438 118.558594 285.882812 119.007812 C 305.101562 119.910156 324.296875 121.273438 343.4375 123.304688 C 352.996094 124.332031 362.550781 125.5 372.074219 126.925781 C 381.601562 128.351562 391.082031 130.007812 400.496094 132.058594 C 405.203125 133.082031 409.886719 134.210938 414.539062 135.480469 C 419.191406 136.75 423.804688 138.175781 428.339844 139.859375 C 430.605469 140.703125 432.851562 141.609375 435.054688 142.628906 C 437.277344 143.632812 439.425781 144.777344 441.503906 146.054688 C 442.546875 146.703125 443.554688 147.40625 444.527344 148.164062 C 445.511719 148.929688 446.429688 149.769531 447.273438 150.6875 C 448.148438 151.628906 448.875 152.675781 449.445312 153.824219 C 450.058594 155.027344 450.371094 156.304688 450.375 157.65625 C 450.382812 159.003906 450.085938 160.285156 449.484375 161.492188 C 449.203125 162.078125 448.882812 162.636719 448.511719 163.171875 C 448.148438 163.695312 447.757812 164.195312 447.332031 164.671875 C 446.492188 165.601562 445.582031 166.457031 444.597656 167.238281 C 443.632812 168.007812 442.632812 168.726562 441.589844 169.390625 C 439.519531 170.695312 437.378906 171.867188 435.160156 172.902344 C 432.960938 173.945312 430.71875 174.882812 428.457031 175.757812 C 423.929688 177.492188 419.320312 178.972656 414.675781 180.304688 C 410.027344 181.636719 405.335938 182.816406 400.640625 183.886719 C 391.226562 186.03125 381.742188 187.785156 372.21875 189.300781 C 362.695312 190.820312 353.144531 192.101562 343.570312 193.191406 C 324.417969 195.375 305.199219 196.851562 285.960938 197.828125 C 276.339844 198.308594 266.714844 198.671875 257.085938 198.914062 C 247.453125 199.160156 237.824219 199.277344 228.199219 199.269531 C 208.941406 199.261719 189.683594 198.785156 170.425781 197.839844 C 160.804688 197.359375 151.191406 196.738281 141.585938 195.976562 C 131.980469 195.210938 122.390625 194.289062 112.8125 193.207031 C 103.238281 192.117188 93.691406 190.820312 84.164062 189.320312 C 74.644531 187.800781 65.15625 186.046875 55.742188 183.902344 C 51.035156 182.832031 46.355469 181.652344 41.707031 180.320312 C 37.058594 178.992188 32.453125 177.511719 27.9375 175.777344 C 25.671875 174.90625 23.433594 173.964844 21.234375 172.921875 C 19.015625 171.886719 16.871094 170.714844 14.800781 169.40625 C 13.757812 168.746094 12.753906 168.027344 11.789062 167.253906 C 10.800781 166.472656 9.882812 165.613281 9.039062 164.675781 C 8.617188 164.203125 8.222656 163.703125 7.859375 163.179688 C 7.492188 162.644531 7.167969 162.085938 6.886719 161.5 C 6.285156 160.289062 5.988281 159.007812 5.996094 157.65625 C 6 156.304688 6.3125 155.027344 6.925781 153.824219 C 7.5 152.671875 8.222656 151.625 9.097656 150.683594 C 9.949219 149.761719 10.871094 148.921875 11.863281 148.15625 C 12.832031 147.398438 13.839844 146.695312 14.886719 146.046875 C 16.964844 144.769531 19.113281 143.628906 21.335938 142.621094 C 23.539062 141.605469 25.785156 140.695312 28.050781 139.851562 C 32.585938 138.167969 37.203125 136.746094 41.851562 135.472656 C 46.503906 134.199219 51.191406 133.082031 55.894531 132.050781 C 65.308594 130.003906 74.792969 128.347656 84.316406 126.921875 C 93.839844 125.496094 103.386719 124.328125 112.953125 123.300781 C 132.09375 121.269531 151.289062 119.90625 170.511719 119.003906 C 180.121094 118.554688 189.734375 118.222656 199.351562 118.015625 C 208.96875 117.804688 218.582031 117.699219 228.1875 117.695312 Z M 228.1875 117.695312 C 218.570312 117.695312 208.953125 117.8125 199.335938 118.046875 C 189.722656 118.285156 180.109375 118.644531 170.503906 119.132812 C 151.292969 120.109375 132.105469 121.582031 112.996094 123.765625 C 103.441406 124.851562 93.914062 126.144531 84.417969 127.644531 C 74.925781 129.164062 65.46875 130.902344 56.105469 133.039062 C 51.421875 134.105469 46.773438 135.292969 42.15625 136.601562 C 37.546875 137.921875 32.976562 139.386719 28.511719 141.101562 C 26.28125 141.972656 24.078125 142.886719 21.925781 143.910156 C 19.769531 144.914062 17.6875 146.050781 15.679688 147.320312 C 14.6875 147.953125 13.730469 148.636719 12.8125 149.371094 C 11.902344 150.09375 11.058594 150.882812 10.28125 151.746094 C 9.902344 152.171875 9.550781 152.617188 9.226562 153.085938 C 8.910156 153.546875 8.632812 154.027344 8.390625 154.53125 C 7.898438 155.515625 7.652344 156.558594 7.660156 157.65625 C 7.667969 158.757812 7.921875 159.796875 8.429688 160.773438 C 8.675781 161.273438 8.957031 161.75 9.277344 162.203125 C 9.605469 162.664062 9.960938 163.105469 10.34375 163.523438 C 11.125 164.371094 11.976562 165.148438 12.890625 165.855469 C 13.8125 166.578125 14.773438 167.246094 15.765625 167.863281 C 17.785156 169.105469 19.871094 170.210938 22.027344 171.1875 C 24.183594 172.183594 26.394531 173.074219 28.628906 173.90625 C 33.101562 175.566406 37.675781 176.972656 42.289062 178.242188 C 46.90625 179.507812 51.566406 180.628906 56.246094 181.640625 C 65.613281 183.679688 75.070312 185.335938 84.558594 186.75 C 94.046875 188.167969 103.582031 189.339844 113.125 190.363281 C 132.222656 192.390625 151.390625 193.753906 170.578125 194.652344 C 189.761719 195.554688 208.976562 195.972656 228.1875 195.957031 C 237.792969 195.957031 247.398438 195.851562 257.003906 195.636719 C 266.605469 195.421875 276.207031 195.09375 285.800781 194.648438 C 304.988281 193.75 324.15625 192.390625 343.25 190.363281 C 352.808594 189.335938 362.328125 188.171875 371.816406 186.75 C 381.308594 185.328125 390.761719 183.675781 400.132812 181.640625 C 404.8125 180.617188 409.46875 179.503906 414.089844 178.238281 C 418.710938 176.972656 423.28125 175.566406 427.75 173.90625 C 429.988281 173.074219 432.195312 172.179688 434.351562 171.1875 C 436.507812 170.210938 438.597656 169.101562 440.613281 167.859375 C 441.609375 167.242188 442.570312 166.574219 443.492188 165.851562 C 444.410156 165.144531 445.257812 164.367188 446.042969 163.515625 C 446.421875 163.097656 446.777344 162.660156 447.109375 162.199219 C 447.429688 161.746094 447.710938 161.269531 447.960938 160.769531 C 448.464844 159.792969 448.722656 158.75 448.726562 157.648438 C 448.734375 156.546875 448.492188 155.503906 447.996094 154.519531 C 447.753906 154.015625 447.476562 153.535156 447.160156 153.074219 C 446.835938 152.605469 446.484375 152.160156 446.105469 151.734375 C 445.328125 150.871094 444.484375 150.078125 443.570312 149.355469 C 442.652344 148.621094 441.699219 147.9375 440.707031 147.304688 C 438.695312 146.035156 436.613281 144.898438 434.457031 143.894531 C 432.304688 142.871094 430.101562 141.9375 427.871094 141.085938 C 423.40625 139.371094 418.835938 137.90625 414.226562 136.585938 C 409.617188 135.265625 404.960938 134.089844 400.277344 133.023438 C 390.910156 130.890625 381.457031 129.144531 371.964844 127.628906 C 362.46875 126.117188 352.9375 124.839844 343.382812 123.753906 C 324.273438 121.582031 305.085938 120.101562 285.878906 119.125 C 276.273438 118.644531 266.660156 118.285156 257.042969 118.039062 C 247.425781 117.792969 237.808594 117.679688 228.1875 117.695312 Z M 228.1875 117.695312 "/></g><g style="fill:#775858;fill-opacity:1;"><g transform="translate(110.900061, 204.77308)"><path style="stroke:none" d="M 88.546875 -30.078125 L 88.546875 -29.890625 C 87.160156 -20.429688 84.640625 -12.894531 80.984375 -7.28125 C 77.328125 -1.664062 72.28125 2.460938 65.84375 5.109375 C 59.414062 7.753906 51.34375 9.394531 41.625 10.03125 C 36.707031 10.03125 32.007812 9.523438 27.53125 8.515625 C 23.050781 7.503906 19.109375 6.335938 15.703125 5.015625 C 12.296875 3.691406 9.582031 2.523438 7.5625 1.515625 C 5.550781 0.503906 4.546875 0 4.546875 0 L 4.921875 -1.140625 C 1.890625 -2.273438 -0.503906 -3.3125 -2.265625 -4.25 C -4.035156 -5.195312 -4.921875 -5.671875 -4.921875 -5.671875 L 4.359375 -28.578125 C 7.765625 -26.429688 11.640625 -24.503906 15.984375 -22.796875 C 20.335938 -21.097656 24.535156 -20.25 28.578125 -20.25 C 33.117188 -20.5 36.898438 -22.132812 39.921875 -25.15625 C 42.953125 -28.1875 44.847656 -32.734375 45.609375 -38.796875 C 46.484375 -48.753906 47.363281 -58.242188 48.25 -67.265625 C 49.132812 -76.285156 49.921875 -84.328125 50.609375 -91.390625 C 51.304688 -98.453125 51.875 -104 52.3125 -108.03125 C 52.757812 -112.070312 52.984375 -114.09375 52.984375 -114.09375 L 54.875 -114.09375 C 60.425781 -114.09375 65.941406 -113.742188 71.421875 -113.046875 C 76.910156 -112.359375 81.484375 -111.632812 85.140625 -110.875 C 88.804688 -110.125 90.640625 -109.75 90.640625 -109.75 L 89.875 -105.96875 C 92.90625 -105.457031 95.363281 -105.015625 97.25 -104.640625 C 99.144531 -104.265625 100.09375 -104.078125 100.09375 -104.078125 C 99.082031 -98.398438 98.007812 -92.054688 96.875 -85.046875 C 95.738281 -78.046875 94.601562 -70.851562 93.46875 -63.46875 C 92.332031 -56.09375 91.257812 -49.003906 90.25 -42.203125 Z M 77.203125 -35.953125 C 78.335938 -43.773438 79.535156 -51.941406 80.796875 -60.453125 C 82.054688 -68.972656 83.316406 -77.363281 84.578125 -85.625 C 85.835938 -93.882812 87.097656 -101.421875 88.359375 -108.234375 C 82.941406 -109.492188 77.394531 -110.46875 71.71875 -111.15625 C 66.039062 -111.851562 60.363281 -112.203125 54.6875 -112.203125 C 54.6875 -112.203125 54.492188 -110.3125 54.109375 -106.53125 C 53.734375 -102.75 53.195312 -97.484375 52.5 -90.734375 C 51.8125 -83.984375 51.023438 -76.160156 50.140625 -67.265625 C 49.253906 -58.367188 48.375 -48.8125 47.5 -38.59375 C 46.863281 -31.53125 44.875 -26.453125 41.53125 -23.359375 C 38.1875 -20.273438 33.929688 -18.609375 28.765625 -18.359375 L 28 -18.359375 C 24.46875 -18.359375 20.9375 -18.988281 17.40625 -20.25 C 13.875 -21.507812 10.972656 -22.769531 8.703125 -24.03125 C 6.429688 -25.289062 5.296875 -25.921875 5.296875 -25.921875 L -2.65625 -6.4375 C -2.65625 -6.4375 -1.332031 -5.707031 1.3125 -4.25 C 3.96875 -2.800781 7.691406 -1.320312 12.484375 0.1875 C 17.273438 1.695312 22.765625 2.453125 28.953125 2.453125 C 38.921875 2.453125 47.179688 1.351562 53.734375 -0.84375 C 60.296875 -3.050781 65.46875 -6.929688 69.25 -12.484375 C 73.039062 -18.035156 75.691406 -25.859375 77.203125 -35.953125 Z M 77.203125 -35.953125 "/></g></g><g style="fill:#775858;fill-opacity:1;"><g transform="translate(189.612984, 204.77308)"><path style="stroke:none" d="M 47.6875 6.0625 C 42.632812 6.0625 37.835938 5.425781 33.296875 4.15625 C 28.753906 2.894531 24.46875 0.691406 20.4375 -2.453125 C 13.375 -5.359375 8.109375 -9.773438 4.640625 -15.703125 C 1.171875 -21.628906 -0.5625 -27.9375 -0.5625 -34.625 C -0.5625 -40.8125 1.039062 -46.804688 4.25 -52.609375 C 7.46875 -58.410156 12.039062 -63.328125 17.96875 -67.359375 C 23.90625 -71.398438 31.035156 -73.734375 39.359375 -74.359375 C 44.023438 -74.234375 48.21875 -73.476562 51.9375 -72.09375 C 55.65625 -70.707031 58.78125 -68.816406 61.3125 -66.421875 C 66.476562 -64.523438 70.539062 -61.617188 73.5 -57.703125 C 76.46875 -53.796875 77.953125 -49.632812 77.953125 -45.21875 C 77.953125 -40.9375 76.753906 -36.835938 74.359375 -32.921875 C 71.960938 -29.015625 68.304688 -25.925781 63.390625 -23.65625 L 63.953125 -21.1875 C 66.097656 -21.695312 67.925781 -22.171875 69.4375 -22.609375 C 70.957031 -23.054688 71.71875 -23.28125 71.71875 -23.28125 C 71.71875 -23.28125 71.9375 -22.332031 72.375 -20.4375 C 72.8125 -18.539062 73.28125 -16.269531 73.78125 -13.625 C 74.289062 -10.976562 74.734375 -8.328125 75.109375 -5.671875 C 75.492188 -3.023438 75.625 -0.945312 75.5 0.5625 C 75.5 0.5625 74.300781 1.003906 71.90625 1.890625 C 69.507812 2.773438 66.195312 3.691406 61.96875 4.640625 C 57.738281 5.585938 52.976562 6.0625 47.6875 6.0625 Z M 38.03125 -53.921875 C 38.40625 -54.046875 38.78125 -54.109375 39.15625 -54.109375 C 39.539062 -54.109375 39.859375 -54.109375 40.109375 -54.109375 C 43.390625 -54.109375 45.375 -53.222656 46.0625 -51.453125 C 46.757812 -49.691406 46.128906 -47.925781 44.171875 -46.15625 C 42.222656 -44.394531 38.976562 -43.515625 34.4375 -43.515625 C 32.039062 -43.515625 29.644531 -43.769531 27.25 -44.28125 C 28.257812 -46.800781 29.707031 -48.941406 31.59375 -50.703125 C 33.488281 -52.472656 35.632812 -53.546875 38.03125 -53.921875 Z M 35.1875 -1.515625 L 38.40625 -1.515625 C 43.582031 -1.515625 48.09375 -1.921875 51.9375 -2.734375 C 55.789062 -3.554688 58.785156 -4.347656 60.921875 -5.109375 C 63.066406 -5.867188 64.140625 -6.25 64.140625 -6.25 C 64.265625 -7.507812 64.171875 -9.242188 63.859375 -11.453125 C 63.546875 -13.660156 63.164062 -15.929688 62.71875 -18.265625 C 62.28125 -20.597656 61.867188 -22.550781 61.484375 -24.125 C 61.109375 -25.695312 60.921875 -26.484375 60.921875 -26.484375 C 60.921875 -26.484375 60.003906 -26.265625 58.171875 -25.828125 C 56.347656 -25.390625 54.046875 -24.914062 51.265625 -24.40625 C 48.492188 -23.90625 45.535156 -23.65625 42.390625 -23.65625 C 39.992188 -23.65625 37.5 -23.875 34.90625 -24.3125 C 32.320312 -24.757812 30.273438 -25.988281 28.765625 -28 C 30.148438 -27.875 31.441406 -27.78125 32.640625 -27.71875 C 33.835938 -27.65625 35.003906 -27.625 36.140625 -27.625 C 44.210938 -27.625 50.644531 -29.132812 55.4375 -32.15625 C 60.226562 -35.1875 63.472656 -38.941406 65.171875 -43.421875 C 66.878906 -47.898438 67.101562 -52.347656 65.84375 -56.765625 C 64.582031 -61.179688 61.867188 -64.898438 57.703125 -67.921875 C 53.546875 -70.953125 48.0625 -72.46875 41.25 -72.46875 L 39.359375 -72.46875 C 31.410156 -72.21875 24.691406 -70.359375 19.203125 -66.890625 C 13.710938 -63.421875 9.484375 -59.035156 6.515625 -53.734375 C 3.554688 -48.441406 1.890625 -42.859375 1.515625 -36.984375 C 1.140625 -31.117188 2.117188 -25.535156 4.453125 -20.234375 C 6.785156 -14.941406 10.503906 -10.59375 15.609375 -7.1875 C 20.722656 -3.78125 27.25 -1.890625 35.1875 -1.515625 Z M 35.1875 -1.515625 "/></g></g><g style="fill:#775858;fill-opacity:1;"><g transform="translate(257.540739, 204.77308)"><path style="stroke:none" d="M 51.84375 -34.625 C 51.96875 -35.382812 52.0625 -36.109375 52.125 -36.796875 C 52.1875 -37.492188 52.15625 -38.09375 52.03125 -38.59375 C 50.519531 -38.21875 49.070312 -37.648438 47.6875 -36.890625 C 47.8125 -27.429688 48.566406 -17.085938 49.953125 -5.859375 C 49.953125 -9.140625 50.078125 -13.394531 50.328125 -18.625 C 50.578125 -23.863281 51.082031 -29.195312 51.84375 -34.625 Z M 7 -110.5 L 39.921875 -104.265625 C 39.921875 -104.265625 39.890625 -103.914062 39.828125 -103.21875 C 39.765625 -102.519531 39.671875 -101.601562 39.546875 -100.46875 L 49.390625 -98.578125 C 49.390625 -98.578125 49.195312 -96.335938 48.8125 -91.859375 C 48.4375 -87.390625 48.0625 -80.988281 47.6875 -72.65625 C 52.226562 -74.300781 56.707031 -75.125 61.125 -75.125 C 68.9375 -75.125 75.242188 -72.722656 80.046875 -67.921875 C 85.210938 -66.285156 89.40625 -63.164062 92.625 -58.5625 C 95.84375 -53.957031 97.320312 -48.25 97.0625 -41.4375 C 96.9375 -39.414062 96.875 -37.363281 96.875 -35.28125 C 96.875 -33.207031 96.875 -31.097656 96.875 -28.953125 C 96.875 -23.148438 97 -17.503906 97.25 -12.015625 C 97.507812 -6.523438 97.765625 -2.046875 98.015625 1.421875 C 98.265625 4.890625 98.390625 6.625 98.390625 6.625 L 59.609375 5.671875 C 59.609375 5.671875 59.578125 5.101562 59.515625 3.96875 C 59.453125 2.832031 59.421875 1.570312 59.421875 0.1875 L 50.703125 0 L 51.65625 5.296875 C 48.25 6.304688 43.988281 7.03125 38.875 7.46875 C 33.769531 7.914062 28.945312 8.140625 24.40625 8.140625 C 21.632812 8.140625 19.050781 8.078125 16.65625 7.953125 C 14.257812 7.828125 12.300781 7.632812 10.78125 7.375 C 10.65625 6.5 10.5625 5.679688 10.5 4.921875 C 10.4375 4.160156 10.40625 3.335938 10.40625 2.453125 C 8.507812 2.328125 6.773438 2.203125 5.203125 2.078125 C 3.628906 1.953125 2.335938 1.828125 1.328125 1.703125 C 0.941406 -3.472656 0.625 -8.832031 0.375 -14.375 C 0.125 -19.925781 0 -25.097656 0 -29.890625 C 0 -40.867188 0.34375 -51.210938 1.03125 -60.921875 C 1.726562 -70.640625 2.550781 -79.21875 3.5 -86.65625 C 4.445312 -94.101562 5.265625 -99.9375 5.953125 -104.15625 C 6.648438 -108.382812 7 -110.5 7 -110.5 Z M 38.984375 -103.5 L 8.515625 -108.234375 C 8.515625 -108.234375 8.195312 -106.304688 7.5625 -102.453125 C 6.9375 -98.609375 6.210938 -93.25 5.390625 -86.375 C 4.566406 -79.5 3.804688 -71.488281 3.109375 -62.34375 C 2.421875 -53.195312 2.015625 -43.328125 1.890625 -32.734375 C 1.765625 -22.140625 2.144531 -11.226562 3.03125 0 C 4.164062 0.125 5.800781 0.25 7.9375 0.375 C 10.082031 0.5 12.421875 0.5625 14.953125 0.5625 C 19.367188 0.5625 23.972656 0.40625 28.765625 0.09375 C 33.554688 -0.21875 37.335938 -0.816406 40.109375 -1.703125 C 38.972656 -9.140625 38.117188 -16.390625 37.546875 -23.453125 C 36.984375 -30.523438 36.578125 -37.34375 36.328125 -43.90625 C 40.109375 -45.914062 43.453125 -46.921875 46.359375 -46.921875 C 49.003906 -46.921875 51.050781 -45.941406 52.5 -43.984375 C 53.957031 -42.035156 54.367188 -38.851562 53.734375 -34.4375 C 52.984375 -29.132812 52.507812 -23.992188 52.3125 -19.015625 C 52.125 -14.035156 52.03125 -9.9375 52.03125 -6.71875 C 52.03125 -3.5 52.03125 -1.890625 52.03125 -1.890625 L 86.84375 -0.953125 C 86.84375 -0.953125 86.75 -2.273438 86.5625 -4.921875 C 86.375 -7.566406 86.15625 -11.128906 85.90625 -15.609375 C 85.65625 -20.085938 85.5 -25.070312 85.4375 -30.5625 C 85.375 -36.050781 85.46875 -41.566406 85.71875 -47.109375 C 85.96875 -55.316406 83.726562 -61.722656 79 -66.328125 C 74.269531 -70.929688 68.3125 -73.234375 61.125 -73.234375 C 57.207031 -73.234375 53.132812 -72.503906 48.90625 -71.046875 C 44.6875 -69.597656 40.429688 -67.425781 36.140625 -64.53125 C 36.390625 -76.257812 36.925781 -85.6875 37.75 -92.8125 C 38.570312 -99.9375 38.984375 -103.5 38.984375 -103.5 Z M 38.984375 -103.5 "/></g></g></g></svg>